<?xml version="1.0" encoding="UTF-8"?>
<svg id="Layer_1" data-name="Layer 1" xmlns="http://www.w3.org/2000/svg" viewBox="0 0 128 128">
  <defs>
    <style>
      .cls-1 {
        fill: #111;
      }

      .cls-2 {
        fill: #869280;
      }
    </style>
  </defs>
  <path class="cls-1" d="M64,124c-33.08,0-60-26.92-60-60S30.92,4,64,4s60,26.92,60,60-26.92,60-60,60Z"/>
  <path class="cls-2" d="M64,8c30.88,0,56,25.12,56,56s-25.12,56-56,56S8,94.88,8,64,33.12,8,64,8M64,0h0C28.65,0,0,28.65,0,64h0c0,35.35,28.65,64,64,64h0c35.35,0,64-28.65,64-64h0C128,28.65,99.35,0,64,0h0Z"/>
</svg>