<?xml version="1.0" encoding="utf-8"?><svg version="1.0" xmlns="http://www.w3.org/2000/svg" xmlns:xlink="http://www.w3.org/1999/xlink" x="0px" y="0px"
	 viewBox="0 0 500 500" style="enable-background:new 0 0 500 500;" xml:space="preserve"><g><rect width="500" height="500"/></g><g><path fill="#FFFFFF" d="M285.4,161.5c16.3-13.3,35.6-19.3,61.3-19.3c34.6,0,61.8,32.6,61.8,68.7v89.4c0,12.8,5.4,28.7,18.8,32.6
		c13.3,4,17.8,7.9,17.8,12.8c0,4.9-0.5,9.9-13.3,9.9c-10.9,0-35.6-3-43.5-3c-9.9,0-25.7,3-36.6,3c-12.8,0-14.8-4.9-14.8-9.9
		c0-4.9,5.9-8.9,19.3-12.8c8.9-2.5,11.4-19.3,11.4-31.6v-75.6c0-29.2-17.3-57.8-43-57.8c-29.2,0-48.9,19.3-48.9,54.4v79.1
		c0,12.4,2,28.7,11.4,31.6c13.3,4,18.8,7.9,18.8,12.8c0,4.9-1.5,9.9-14.3,9.9c-10.9,0-28.2-3-36.1-3c-9.4,0-25.7,3-36.6,3
		c-12.8,0-14.8-4.9-14.8-9.9c0-4.9,5.9-8.9,19.3-12.8c8.9-2.5,11.4-19.3,11.4-31.6v-75.6c0-29.2-17.3-57.8-43-57.8
		c-28.7,0-48.4,16.8-48.4,54.4l-0.5,79.1c0,12.4,2,28.7,11.4,31.6c13.3,4,18.8,7.9,18.8,12.8c0,4.9-1.5,9.9-14.3,9.9
		c-10.9,0-28.2-3-36.1-3c-9.9,0-33.1,3-44,3c-12.8,0-14.8-4.9-14.8-9.9c0-4.9,5.9-8.9,19.3-12.8c13.3-4,18.8-19.3,18.8-31.6v-95.9
		c0-8.4-8.4-20.8-20.3-25.2c-5.4-2-10.4-4.9-10.4-10.4c0-5.4,7.9-9.4,14.3-12.4c5.4-3,46.5-19.3,51.4-19.3c5.9,0,5.9,4.4,5.9,13.8
		v12.4c0,7.4,5.9,0.5,9.9-3c16.3-13.3,35.6-19.3,61.3-19.3c21.7,0,40.5,13.3,50.9,30.1c1.5,2,2.5,2.5,3.5,2.5
		C270.5,174.9,276,169.4,285.4,161.5z"/></g></svg>
