<?xml version="1.0" encoding="UTF-8"?><svg data-name="m" xmlns="http://www.w3.org/2000/svg" viewBox="0 0 512 512"><rect width="512" height="512" fill="#1a1a1a"/><g fill="#e3e3e3"><path d="m213.21,315.93l-68.49,85.62-34.25,17.12h-34.25v-17.12l68.49-102.74v-17.12l-17.12-17.12h-17.12l-17.12-17.12V110.45l17.12-17.12h102.74l17.12,17.12v154.11l-17.12,51.37Z"/><path d="m315.93,315.93l-68.49,85.62-34.25,17.12h-34.25v-17.12l68.49-102.74v-17.12l-17.13-17.12h-17.12l-17.13-17.12V110.45l17.13-17.12h102.74l17.12,17.12v154.11l-17.12,51.37Z"/><path d="m418.66,315.93l-68.49,85.62-34.25,17.12h-34.25v-17.12l68.49-102.74v-17.12l-17.12-17.12h-17.12l-17.12-17.12V110.45l17.12-17.12h102.74l17.12,17.12v154.11l-17.12,51.37Z"/></g></svg>