<svg xmlns="http://www.w3.org/2000/svg" viewBox="0 0 512 512"><title>marco_pagan</title><rect width="512" height="512" rx="86.42" ry="86.42" style="fill:#111"/><line x1="119.24" y1="391.2" x2="392.76" y2="391.2" style="fill:none;stroke:#9500ff;stroke-linecap:round;stroke-miterlimit:10;stroke-width:26.904181838035583px"/><path d="M347.68,332.15H312.54q56.1-82.48,56.1-139,0-24.06-9.51-34.35t-21.74-10.29q-13,0-26.2,11.35t-21.35,30.87q-8.16,19.5-18.83,68.61l-4.47,20.76H231.41l8.93-40.56q7-31.63,7-48.91,0-21-9-31.54t-22-10.58q-23.49,0-42.32,33.09t-18.83,86.28q0,30.27,9.13,64.24H129.13q-9.7-38.62-9.71-69.1,0-58,28.63-99.86t69.39-41.82a52.6,52.6,0,0,1,33.87,11.74Q266,144.85,271.79,166q11.83-21.54,30.76-33.09t38.14-11.55q26.78,0,44.74,19.31t17.95,56.19q0,28.92-14.07,64.83T347.68,332.15Z" style="fill:#eee"/></svg>