<?xml version="1.0" encoding="UTF-8"?><svg id="m"  xmlns="http://www.w3.org/2000/svg" viewBox="0 0 512 512"><rect fill="#1a1a1a" width="512" height="512"/><g fill="#e3e3e3"><path d="m143.56,119.08c10.92,0,21.73,2.62,32.43,7.86,10.7,5.24,19.61,12.32,26.75,21.23,16.94,21.18,25.41,47.93,25.41,80.24,0,17.84-3.29,37.84-9.86,60.02-6.58,22.18-15.21,42.3-25.91,60.35-17.61,29.42-36,44.13-55.17,44.13-8.47,0-16.11-2.57-22.9-7.69-6.8-5.13-10.2-11.03-10.2-17.72,0-3.57,4.23-12.15,12.71-25.74,5.13-8.02,9.64-17.05,13.54-27.08,3.9-10.03,5.85-17.61,5.85-22.74,0-8.02-3.79-13.49-11.37-16.38-14.94-5.57-25.53-11.03-31.76-16.38-18.72-16.05-28.08-36.66-28.08-61.85,0-20.06,6.57-37.22,19.73-51.49,16.27-17.83,35.88-26.75,58.85-26.75Z"/><path d="m252.99,119.08c10.92,0,21.73,2.62,32.43,7.86,10.7,5.24,19.61,12.32,26.75,21.23,16.94,21.18,25.41,47.93,25.41,80.24,0,17.84-3.29,37.84-9.86,60.02-6.58,22.18-15.21,42.3-25.91,60.35-17.61,29.42-36,44.13-55.17,44.13-8.47,0-16.11-2.57-22.9-7.69-6.8-5.13-10.2-11.03-10.2-17.72,0-3.57,4.23-12.15,12.7-25.74,5.13-8.02,9.64-17.05,13.54-27.08,3.9-10.03,5.85-17.61,5.85-22.74,0-8.02-3.79-13.49-11.37-16.38-14.94-5.57-25.53-11.03-31.76-16.38-18.72-16.05-28.09-36.66-28.09-61.85,0-20.06,6.57-37.22,19.73-51.49,16.27-17.83,35.89-26.75,58.85-26.75Z"/><path d="m362.42,119.08c10.92,0,21.73,2.62,32.43,7.86,10.7,5.24,19.61,12.32,26.75,21.23,16.94,21.18,25.41,47.93,25.41,80.24,0,17.84-3.29,37.84-9.86,60.02-6.58,22.18-15.21,42.3-25.91,60.35-17.61,29.42-36,44.13-55.17,44.13-8.47,0-16.11-2.57-22.9-7.69-6.8-5.13-10.2-11.03-10.2-17.72,0-3.57,4.23-12.15,12.7-25.74,5.13-8.02,9.64-17.05,13.54-27.08,3.9-10.03,5.85-17.61,5.85-22.74,0-8.02-3.79-13.49-11.37-16.38-14.94-5.57-25.53-11.03-31.76-16.38-18.72-16.05-28.09-36.66-28.09-61.85,0-20.06,6.57-37.22,19.73-51.49,16.27-17.83,35.89-26.75,58.85-26.75Z"/></g></svg>